<svg width="2880" height="1880" viewBox="0 0 2880 1880" fill="none" xmlns="http://www.w3.org/2000/svg">
<g clip-path="url(#clip0_0_280)">
<rect width="2880" height="1880" fill="white"/>
<rect y="-9" width="2880" height="1898" fill="url(#paint0_radial_0_280)"/>
<g opacity="0.182501" style="mix-blend-mode:overlay">
<path fill-rule="evenodd" clip-rule="evenodd" d="M1438.26 1961.06L1160.53 1773.73L1209.53 1738.02L1470.13 1913.8L1438.26 1961.06ZM733.342 1416.9L988.555 1588.99L973.407 1647.51C973.498 1647.52 895.456 1594.9 822.983 1546.04L822.973 1546.04L822.967 1546.03L822.963 1546.03L822.96 1546.03L822.957 1546.03L822.956 1546.03C760.17 1503.7 701.572 1464.19 701.589 1464.17L701.863 1463.76L701.929 1463.66L701.95 1463.63C705.456 1458.39 733.276 1416.86 733.342 1416.9ZM607.706 1400.44C595.336 1351.18 568.524 1311.57 528.919 1279.03L173.968 1039.59L142.308 1086.52C142.285 1086.56 607.706 1400.44 607.706 1400.44ZM-221.83 840.781L100.469 1058.17L132.058 1011.34L-190.242 793.948L-221.83 840.781ZM1070.53 1843.14L1377.27 2050.04L1409.14 2002.78L1119.03 1807.1C1119.11 1807.18 1070.53 1843.14 1070.53 1843.14ZM946.639 1759.94L640.724 1553.6L672.598 1506.35L961.769 1701.39L946.639 1759.94ZM611.59 1478.85L611.592 1478.84C612.273 1475.37 612.961 1471.87 613.738 1468.31L112.601 1130.29L81.1366 1176.93L595.661 1523.99C605.637 1509.2 608.534 1494.43 611.59 1478.85ZM-282.847 931.425L39.1848 1148.64L70.649 1101.99L-251.383 884.777L-282.847 931.425ZM1025.19 1876.86L976.423 1912.72L1224.38 2079.81L1256.13 2032.73L1025.19 1876.86ZM931.439 1813.93L916.378 1872.53L670.982 1707.01L702.856 1659.75L931.439 1813.93ZM532.571 1613.75C546.899 1602.8 560.346 1587.32 571.279 1571.11L422.881 1471.01L391.007 1518.27L532.571 1613.75ZM-255.82 1081.45L-117.371 1174.84L-85.4972 1127.58L-223.947 1034.2L-255.82 1081.45ZM252.709 1423.79L114.259 1330.41L146.133 1283.15L284.583 1376.54L252.709 1423.79ZM770.322 1848.86C770.322 1848.86 746.133 1884.83 746.05 1884.88L609.196 1792.57L641.07 1745.32L901.875 1921.23L888.343 1976.21C888.372 1976.24 899.922 1967.69 911.36 1959.22L911.388 1959.2L911.494 1959.12L911.54 1959.08L911.619 1959.02C922.771 1950.76 933.733 1942.64 933.715 1942.71L1196.53 2119.98L1164.65 2167.23L1028.47 2075.38L1052.69 2039.32L1015.82 2066.84L758.663 1893.29L770.322 1848.86ZM486.996 1639.6L87.4369 1370.1L55.5901 1417.27C55.5425 1417.34 415.564 1660.08 415.564 1660.08C438.82 1658.03 467.617 1649.53 486.996 1639.6ZM486.996 1639.6L487.015 1639.61L487.039 1639.58L486.996 1639.6ZM-314.075 1168.96L-175.625 1262.34L-143.751 1215.09L-282.201 1121.7L-314.075 1168.96ZM1105.97 2255.81L970.007 2164.1L1001.88 2116.85L1137.84 2208.56L1105.97 2255.81ZM720.307 1927.32L584.447 1835.68L552.582 1882.93C552.557 1882.9 575.773 1898.56 603.021 1916.95L603.186 1917.06L603.302 1917.14L603.352 1917.18L603.435 1917.23C642.023 1943.27 688.48 1974.62 688.494 1974.6C688.506 1974.58 720.501 1927.45 720.307 1927.32ZM948.568 2116.12L948.575 2116.12C960.645 2106.92 972.866 2097.61 973.247 2097.81L745.265 1944.03C745.296 1944 742.989 1953.11 740.191 1964.17L740.163 1964.28C735.869 1981.24 730.433 2002.72 730.49 2002.82L924.818 2133.77C925.139 2133.97 936.78 2125.1 948.568 2116.12ZM26.8323 1459.71L386.096 1702.04C393.337 1726.67 396.895 1753.38 397.049 1778.16C397.334 1778.34 328.474 1731.91 247.671 1677.41L247.633 1677.39L247.568 1677.34L247.462 1677.27L247.286 1677.15L246.995 1676.95L246.93 1676.91L246.824 1676.84L246.648 1676.72L246.358 1676.53L246.296 1676.48L246.195 1676.42L246.027 1676.3L245.751 1676.12L245.714 1676.09L245.653 1676.05L245.553 1675.98L245.388 1675.87C131.456 1599.03 -5.02943 1506.99 -5.01552 1506.97L26.8323 1459.71ZM-203.72 1303.62L-235.594 1350.87L-374.031 1257.47C-373.996 1257.49 -342.169 1210.23 -342.169 1210.23L-203.72 1303.62ZM909.182 2253.15L1045.14 2344.86L1077.02 2297.6L941.056 2205.89L909.182 2253.15ZM629.082 2064.03L493.12 1972.33L524.994 1925.07L660.956 2016.78L629.082 2064.03ZM832.733 2201.2C832.921 2201 881.129 2165.24 881.464 2165.39L718.148 2055.23C717.873 2054.99 703.197 2113.49 703.197 2113.49C703.197 2113.49 832.567 2201.37 832.733 2201.2ZM-34.05 1547.98C-34.0798 1547.98 -66.043 1595.41 -65.9121 1595.21C-65.8778 1595.16 65.3229 1683.75 75.1919 1690.41L75.3206 1690.5L75.778 1690.81C75.9028 1690.89 107.652 1643.55 107.652 1643.55L-34.05 1547.98ZM385.817 1832.3C383.304 1849.19 374.381 1864.95 365.621 1880.42L365.599 1880.46C364.648 1882.14 363.698 1883.82 362.759 1885.5L214.361 1785.4L246.235 1738.15L385.817 1832.3ZM-295.905 1440.78L-434.354 1347.39L-402.48 1300.13L-264.031 1393.52L-295.905 1440.78ZM848.24 2341.92L1076.22 2495.69L1108.1 2448.44L880.114 2294.66L848.24 2341.92ZM569.23 2152.85L341.244 1999.07L373.118 1951.81L601.104 2105.59L569.23 2152.85ZM743.437 2270.04L674.028 2223.23L688.833 2165.32L790.981 2234.22L743.437 2270.04ZM-583.37 1375.1L-551.894 1328.44L-228.963 1546.31C-229.033 1546.26 -236.875 1557.96 -244.71 1569.65L-244.712 1569.66L-244.715 1569.66L-244.719 1569.67C-252.546 1581.35 -260.362 1593.01 -260.415 1592.94L-583.37 1375.1ZM330.639 1923.48C329.304 1924.76 327.952 1926.06 326.579 1927.39C313.627 1939.9 298.872 1954.14 280.771 1958.6L276.49 1955.71L-219.384 1621.24L-187.51 1573.99L330.639 1923.48ZM645.655 2335.12L652.117 2339.48L700.881 2303.62L661.087 2276.78L645.655 2335.12ZM787.929 2431.82L1015.91 2585.6L1047.79 2538.34L819.803 2384.56L787.929 2431.82ZM-247.657 1662.85L-279.459 1710L-279.388 1710.04L68.1608 1944.62C114.939 1975.23 169.282 1987.46 220.714 1978.84C219.366 1977.93 -247.657 1662.85 -247.657 1662.85ZM280.934 2088.97L508.919 2242.75L540.793 2195.49L312.808 2041.72L280.934 2088.97ZM-322.193 1682.36C-322.334 1682.26 -290.494 1635.37 -290.494 1635.37C-290.731 1635.41 -612.947 1417.66 -612.876 1417.71C-612.83 1417.74 -621.702 1430.85 -630.093 1443.24C-637.607 1454.34 -644.734 1464.87 -644.729 1464.93C-644.712 1465.1 -322.051 1682.46 -322.193 1682.36Z" fill="url(#paint1_linear_0_280)"/>
</g>
<g opacity="0.182501" style="mix-blend-mode:overlay">
<path fill-rule="evenodd" clip-rule="evenodd" d="M3659.57 393.87L3381.84 581.199L3367.09 522.394L3627.7 346.614L3659.57 393.87ZM2890.97 843.61L3146.14 671.447L3194.72 707.413C3194.76 707.331 3116.74 759.981 3044.29 808.873L3044.28 808.88L3044.27 808.885L3044.27 808.887L3044.27 808.889L3044.26 808.891L3044.26 808.892C2981.5 851.249 2922.92 890.781 2922.9 890.757L2922.62 890.349L2922.56 890.251L2922.54 890.219C2919 885.008 2890.91 843.654 2890.97 843.61ZM2828.64 953.929C2778.34 946.948 2731.57 956.968 2686.56 981.499L2331.58 1220.91L2363.24 1267.84C2363.27 1267.88 2828.64 953.929 2828.64 953.929ZM1998.99 1513.41L2321.29 1296.02L2289.7 1249.19L1967.4 1466.58L1998.99 1513.41ZM3412.48 690.65L3719.23 483.748L3687.35 436.493L3397.24 632.175C3397.34 632.134 3412.48 690.65 3412.48 690.65ZM3288.94 774.35L2983.02 980.692L2951.15 933.437L3240.32 738.388L3288.94 774.35ZM2902.8 979.704L2902.79 979.697C2899.83 977.767 2896.84 975.815 2893.83 973.762L2392.69 1311.78L2424.16 1358.43L2938.68 1011.38C2928.71 996.59 2916.1 988.371 2902.8 979.704ZM2060.17 1603.94L2382.21 1386.73L2350.74 1340.08L2028.71 1557.29L2060.17 1603.94ZM3426.76 745.314L3441.74 803.964L3689.55 636.66L3657.8 589.581L3426.76 745.314ZM3333.3 808.668L3381.99 844.583L3136.59 1010.1L3104.72 962.849L3333.3 808.668ZM2998.28 1103.5C2993.49 1086.11 2984.17 1067.85 2973.24 1051.64L2824.84 1151.73L2856.71 1198.99L2998.28 1103.5ZM2209.4 1635.08L2347.85 1541.7L2315.98 1494.44L2177.53 1587.83L2209.4 1635.08ZM2717.31 1291.83L2578.86 1385.21L2546.99 1337.96L2685.44 1244.57L2717.31 1291.83ZM3305.33 971.136C3305.33 971.136 3329.62 1007.04 3329.64 1007.13L3192.78 1099.44L3160.91 1052.19L3421.71 876.274L3467.62 909.416C3467.66 909.401 3464.05 895.487 3460.48 881.709L3460.47 881.675L3460.44 881.547L3460.43 881.492L3460.4 881.397C3456.92 867.963 3453.5 854.758 3453.55 854.798L3716.36 677.53L3748.24 724.785L3612.06 816.639L3587.7 780.676L3599.4 825.174L3342.15 998.589L3305.33 971.136ZM3005.17 1155.44L2605.61 1424.95L2637.42 1472.15C2637.47 1472.22 2997.4 1229.34 2997.4 1229.34C3004.21 1207.01 3007.12 1177.13 3005.17 1155.44ZM3005.17 1155.44L3005.19 1155.43L3005.17 1155.39L3005.17 1155.44ZM2268.71 1721.88L2407.16 1628.49L2375.29 1581.23L2236.84 1674.62L2268.71 1721.88ZM3808.38 812.377L3672.42 904.084L3640.55 856.829L3776.51 765.121L3808.38 812.377ZM3359.34 1046.9L3223.48 1138.54L3255.35 1185.78C3255.31 1185.8 3278.54 1170.14 3305.79 1151.76L3305.96 1151.65L3306.07 1151.57L3306.12 1151.54L3306.2 1151.48C3344.8 1125.46 3391.27 1094.13 3391.26 1094.11C3391.25 1094.09 3359.54 1046.77 3359.34 1046.9ZM3619.9 905.988L3619.9 905.98C3615.9 891.345 3611.85 876.526 3612.17 876.245L3384.18 1030.02C3384.17 1029.98 3391.75 1035.53 3400.95 1042.27L3401.04 1042.34C3415.16 1052.67 3433.04 1065.76 3433.16 1065.74L3627.37 934.619C3627.68 934.398 3623.81 920.282 3619.9 905.988ZM2666 1514.71L3025.27 1272.38C3050.81 1274.9 3076.92 1281.61 3099.95 1290.75C3100.22 1290.55 3031.37 1337 2950.58 1391.5L2950.54 1391.53L2950.47 1391.57L2950.37 1391.65L2950.19 1391.76L2949.9 1391.96L2949.84 1392L2949.73 1392.08L2949.55 1392.19L2949.26 1392.39L2949.2 1392.43L2949.1 1392.5L2948.93 1392.61L2948.66 1392.8L2948.62 1392.82L2948.56 1392.87L2948.46 1392.93L2948.29 1393.04C2834.37 1469.9 2697.9 1561.96 2697.89 1561.94L2666 1514.71ZM2434.91 1670L2466.78 1717.26L2328.32 1810.62C2328.35 1810.6 2296.46 1763.39 2296.46 1763.39L2434.91 1670ZM3732.2 993.838L3868.16 902.131L3836.29 854.875L3700.32 946.583L3732.2 993.838ZM3451.93 1182.7L3315.96 1274.41L3284.09 1227.15L3420.05 1135.44L3451.93 1182.7ZM3655.39 1045.26C3655.27 1045.01 3640.18 986.916 3640.44 986.662L3477.13 1096.82C3476.81 1096.99 3525.55 1132.51 3525.55 1132.51C3525.55 1132.51 3655.49 1045.48 3655.39 1045.26ZM2725.03 1604.22C2725.02 1604.25 2757.02 1651.66 2756.89 1651.46C2756.86 1651.41 2888.14 1562.95 2898.02 1556.3L2898.15 1556.21L2898.61 1555.9C2898.73 1555.82 2866.73 1508.65 2866.73 1508.65L2725.03 1604.22ZM3145.93 1321.44C3160.65 1330.1 3171.92 1344.27 3182.99 1358.19L3183.02 1358.23C3184.22 1359.74 3185.42 1361.25 3186.62 1362.75L3038.23 1462.84L3006.35 1415.59L3145.93 1321.44ZM2527.54 1806.85L2389.1 1900.24L2357.22 1852.98L2495.67 1759.6L2527.54 1806.85ZM3791.67 1083.59L4019.66 929.817L3987.78 882.562L3759.8 1036.34L3791.67 1083.59ZM3511.85 1271.46L3283.86 1425.24L3251.99 1377.98L3479.98 1224.21L3511.85 1271.46ZM3685.77 1153.84L3616.36 1200.66L3568.22 1165.24L3670.36 1096.34L3685.77 1153.84ZM2358.97 2048.78L2327.49 2002.12L2650.47 1784.32C2650.4 1784.37 2658.31 1796.02 2666.21 1807.66L2666.22 1807.67L2666.22 1807.67L2666.22 1807.68C2674.12 1819.31 2682.01 1830.93 2681.92 1830.95L2358.97 2048.78ZM3209.81 1406.76C3210.49 1408.47 3211.2 1410.22 3211.91 1411.99C3218.66 1428.68 3226.34 1447.7 3223.69 1466.15L3219.41 1469.04L2723.54 1803.51L2691.66 1756.25L3209.81 1406.76ZM3709.48 1268.88L3715.95 1264.53L3700.96 1205.88L3661.17 1232.72L3709.48 1268.88ZM3852.44 1173.19L4080.42 1019.41L4048.55 972.159L3820.56 1125.94L3852.44 1173.19ZM2751.52 1845.31L2783.32 1892.46L2783.39 1892.41L3131.08 1658.04C3176.98 1626.14 3208.69 1580.33 3219.96 1529.42C3218.61 1530.33 2751.52 1845.31 2751.52 1845.31ZM3344.63 1514.84L3572.61 1361.06L3540.74 1313.8L3312.75 1467.58L3344.63 1514.84ZM2741.69 1921.73C2741.55 1921.82 2709.99 1874.73 2709.99 1874.73C2709.95 1874.97 2387.35 2092.15 2387.42 2092.1C2387.47 2092.07 2396.29 2105.21 2404.64 2117.63C2412.12 2128.76 2419.21 2139.31 2419.27 2139.33C2419.43 2139.37 2741.83 1921.63 2741.69 1921.73Z" fill="url(#paint2_linear_0_280)"/>
</g>
<g opacity="0.250395" style="mix-blend-mode:overlay">
<path fill-rule="evenodd" clip-rule="evenodd" d="M348.377 777.507L385.718 752.312L392.637 757.293C392.643 757.281 381.222 764.988 370.618 772.144C361.433 778.342 352.861 784.127 352.859 784.123L352.82 784.066L352.818 784.064C352.372 783.407 348.367 777.513 348.377 777.507ZM460.553 712.015L419.93 739.415L417.961 731.094L456.079 705.383L460.553 712.015ZM339.73 793.786C332.474 792.902 325.69 794.437 319.129 798.039L267.277 833.01L271.749 839.64C271.752 839.645 339.73 793.786 339.73 793.786ZM217.614 875.652L264.869 843.778L260.395 837.146L213.14 869.02L217.614 875.652ZM424.357 755.813L469.125 725.617L464.652 718.985L422.311 747.544C422.326 747.538 424.357 755.813 424.357 755.813ZM407.125 767.617L362.357 797.813L357.884 791.181L400.201 762.637L407.125 767.617ZM350.817 797.798L350.816 797.798L350.816 797.798L350.815 797.797L350.815 797.797L350.814 797.796L350.813 797.796L350.812 797.795L350.811 797.794C350.386 797.524 349.957 797.251 349.526 796.964L276.046 846.526L280.52 853.158L355.962 802.272C354.544 800.169 352.73 799.015 350.817 797.798ZM226.614 888.652L273.869 856.778L269.395 850.146L222.14 882.02L226.614 888.652ZM426.515 763.708L428.502 772.017L464.97 747.398L460.513 740.791L426.515 763.708ZM413.15 772.708L420.065 777.693L384.417 801.738L379.943 795.106L413.15 772.708ZM363.526 815.115C362.877 812.659 361.58 810.088 360.045 807.813L338.49 822.352L342.964 828.985L363.526 815.115ZM248.793 893.426L268.69 880.005L264.216 873.373L244.319 886.793L248.793 893.426ZM322.69 843.005L302.793 856.426L298.319 849.793L318.216 836.373L322.69 843.005ZM408.724 796.561C408.724 796.561 412.134 801.6 412.136 801.614L392.118 815.116L387.645 808.483L425.792 782.753L432.331 787.339C432.337 787.337 431.849 785.346 431.369 783.386L431.363 783.365C430.898 781.468 430.442 779.606 430.45 779.611L468.89 753.682L473.364 760.315L453.445 773.75L450.026 768.703L451.594 774.999L413.967 800.364L408.724 796.561ZM365.284 823.518L307.257 862.658L311.722 869.283C311.729 869.292 364 834.02 364 834.02C365.03 830.837 365.515 826.59 365.284 823.518ZM365.284 823.518L365.287 823.516L365.284 823.511L365.284 823.518ZM257.793 905.426L277.69 892.005L273.216 885.373L253.319 898.793L257.793 905.426ZM482.69 773.005L462.793 786.426L458.319 779.793L478.216 766.373L482.69 773.005ZM417.201 807.383L397.319 820.793L401.792 827.424C401.787 827.426 405.2 825.124 409.2 822.428C414.855 818.615 421.683 814.011 421.681 814.008L421.678 814.003L421.677 814.002C421.523 813.772 417.229 807.364 417.201 807.383ZM454.891 787.103L454.89 787.102C454.349 785.034 453.801 782.94 453.848 782.899L420.687 805.267C420.685 805.261 421.761 806.031 423.069 806.964C425.078 808.4 427.631 810.224 427.647 810.222L455.896 791.149C455.941 791.117 455.419 789.123 454.891 787.103ZM315.337 875.934L367.93 840.46C371.615 840.746 375.368 841.627 378.671 842.862C378.711 842.834 368.643 849.625 356.824 857.598C340.077 868.896 319.814 882.566 319.812 882.563L315.337 875.934ZM282.216 899.373L286.69 906.005L266.791 919.423C266.796 919.42 262.319 912.793 262.319 912.793L282.216 899.373ZM471.793 799.426L491.69 786.005L487.216 779.373L467.319 792.793L471.793 799.426ZM430.69 827.005L410.793 840.426L406.319 833.793L426.216 820.373L430.69 827.005ZM459.771 807.277C459.754 807.242 457.749 799.012 457.789 798.975L433.747 815.191C433.7 815.216 440.658 820.122 440.658 820.122C440.658 820.122 459.784 807.308 459.771 807.277ZM324.406 889.072C324.405 889.076 328.896 895.729 328.878 895.702C328.873 895.695 347.895 882.877 349.49 881.802L349.529 881.776L349.596 881.731C349.614 881.718 345.122 875.098 345.122 875.098L324.406 889.072ZM385.765 847.677C387.86 848.872 389.448 850.858 391.007 852.808L391.259 853.122C391.345 853.23 391.432 853.338 391.519 853.446L369.964 867.985L365.49 861.352L385.765 847.677ZM295.69 919.005L275.793 932.426L271.319 925.793L291.216 912.373L295.69 919.005ZM480.16 812.899L513.322 790.531L508.848 783.899L475.687 806.267L480.16 812.899ZM439.322 840.531L406.16 862.899L401.687 856.267L434.848 833.899L439.322 840.531ZM464.855 823.266L454.715 830.105L447.806 825.116L462.729 815.05L464.855 823.266ZM270.614 953.652L266.14 947.02L313.393 915.155C313.382 915.162 314.506 916.817 315.63 918.472L315.63 918.473C316.754 920.127 317.876 921.779 317.863 921.782L270.614 953.652ZM395.403 860.36C395.497 860.602 395.593 860.848 395.691 861.098C396.617 863.455 397.671 866.141 397.228 868.779L396.598 869.204L323.605 918.438L319.132 911.806L395.403 860.36ZM468.737 840.055L469.68 839.419L467.669 831.126L461.866 835.04L468.737 840.055ZM489.16 825.899L522.322 803.531L517.848 796.899L484.687 819.267L489.16 825.899ZM328.363 924.289L332.826 930.907L332.837 930.9L383.913 896.47C390.659 891.787 395.39 885.168 397.178 877.884L328.363 924.289ZM415.16 875.899L448.322 853.531L443.848 846.899L410.687 869.267L415.16 875.899ZM326.857 934.761C326.837 934.775 322.409 928.166 322.409 928.166C322.401 928.199 275.132 960.025 275.143 960.018C275.15 960.013 276.388 961.857 277.56 963.601C278.609 965.162 279.605 966.643 279.613 966.646C279.636 966.652 326.878 934.747 326.857 934.761Z" fill="white"/>
</g>
<g opacity="0.250395" style="mix-blend-mode:overlay">
<path fill-rule="evenodd" clip-rule="evenodd" d="M2964.59 379.17L3003.99 401.003L3002.69 409.429C3002.7 409.429 2990.65 402.752 2979.46 396.552C2969.77 391.182 2960.72 386.171 2960.73 386.167L2960.76 386.106L2960.76 386.104C2961.14 385.408 2964.58 379.164 2964.59 379.17ZM3073.87 449.387L3031.01 425.631L3037.53 420.099L3077.75 442.39L3073.87 449.387ZM2946.16 378.856C2943.65 371.99 2939.2 366.641 2933.01 362.431L2878.31 332.107L2874.44 339.102C2874.43 339.107 2946.16 378.856 2946.16 378.856ZM2817.77 307.216L2867.63 334.85L2871.5 327.853L2821.65 300.219L2817.77 307.216ZM3018.41 437.02L3065.64 463.2L3069.52 456.203L3024.85 431.443C3024.86 431.453 3018.41 437.02 3018.41 437.02ZM3000.07 427.025L2952.84 400.845L2956.72 393.848L3001.36 418.595L3000.07 427.025ZM2947.61 390.556L2947.61 390.556L2947.61 390.555L2947.61 390.554L2947.61 390.554L2947.61 390.553L2947.61 390.551L2947.61 390.55L2947.61 390.549C2947.66 390.048 2947.71 389.541 2947.77 389.027L2870.25 346.057L2866.37 353.054L2945.96 397.172C2947.19 394.953 2947.4 392.813 2947.61 390.556ZM2810.28 321.137L2860.13 348.771L2864.01 341.774L2814.15 314.14L2810.28 321.137ZM3012.35 442.527L3005.85 448.07L3044.35 469.386L3048.21 462.415L3012.35 442.527ZM2998.27 434.704L2996.97 443.129L2959.36 422.282L2963.24 415.285L2998.27 434.704ZM2937.95 409.742C2939.85 408.049 2941.55 405.725 2942.88 403.325L2920.14 390.72L2916.26 397.717L2937.95 409.742ZM2816.09 343.066L2837.08 354.701L2840.96 347.704L2819.97 336.069L2816.09 343.066ZM2894.57 386.018L2873.57 374.382L2877.45 367.385L2898.44 379.021L2894.57 386.018ZM2975.01 441.59C2975.01 441.59 2972.06 446.916 2972.05 446.924L2950.93 435.218L2954.81 428.221L2995.06 450.529L2993.94 458.437C2993.94 458.442 2995.5 457.103 2997.03 455.785L2997.04 455.771C2998.52 454.495 2999.97 453.243 2999.97 453.253L3040.53 475.732L3036.65 482.729L3015.63 471.081L3018.58 465.743L3013.68 469.999L2974 447.988L2975.01 441.59ZM2931.27 415.123L2870.05 381.19L2866.17 388.175C2866.17 388.186 2921.33 418.747 2921.33 418.747C2924.63 418.219 2928.63 416.723 2931.27 415.123ZM2931.27 415.123L2931.27 415.125L2931.27 415.12L2931.27 415.123ZM2809.49 356.533L2830.48 368.168L2834.35 361.171L2813.36 349.536L2809.49 356.533ZM3029.57 496.8L3008.58 485.164L3012.46 478.167L3033.45 489.803L3029.57 496.8ZM2969.21 454.056L2948.24 442.429L2944.36 449.425C2944.36 449.421 2947.96 451.417 2952.17 453.757C2958.14 457.065 2965.34 461.059 2965.34 461.056L2965.35 461.05L2965.35 461.049C2965.48 460.808 2969.24 454.072 2969.21 454.056ZM3004.39 478.431L3004.39 478.43C3005.99 477.009 3007.61 475.57 3007.66 475.593L2972.68 456.201C2972.68 456.197 2972.49 457.506 2972.25 459.094C2971.88 461.536 2971.42 464.639 2971.43 464.653L3001.24 481.164C3001.29 481.19 3002.83 479.819 3004.39 478.431ZM2861.89 394.416L2917.37 425.172C2918.79 428.585 2919.71 432.329 2920.11 435.833C2920.15 435.855 2909.53 429.968 2897.06 423.057C2879.39 413.265 2858.01 401.416 2858.01 401.413L2861.89 394.416ZM2825.97 375.546L2822.09 382.543L2801.1 370.905C2801.1 370.908 2804.98 363.911 2804.98 363.911L2825.97 375.546ZM3001.09 499.085L3022.08 510.721L3025.96 503.724L3004.96 492.088L3001.09 499.085ZM2957.85 474.983L2936.86 463.347L2940.74 456.35L2961.73 467.986L2957.85 474.983ZM2988.63 491.938C2988.66 491.907 2995.08 486.385 2995.13 486.403L2969.77 472.344C2969.72 472.313 2968.51 480.74 2968.51 480.74C2968.51 480.74 2988.61 491.964 2988.63 491.938ZM2854.3 408.461C2854.29 408.462 2850.41 415.484 2850.42 415.455C2850.43 415.448 2870.48 426.578 2872.16 427.511L2872.21 427.534L2872.28 427.573C2872.29 427.584 2876.15 420.576 2876.15 420.576L2854.3 408.461ZM2919.04 444.339C2918.92 446.749 2917.88 449.065 2916.85 451.34L2916.68 451.706C2916.62 451.833 2916.57 451.959 2916.51 452.085L2893.77 439.48L2897.65 432.483L2919.04 444.339ZM2814.59 396.464L2793.6 384.829L2797.48 377.832L2818.47 389.467L2814.59 396.464ZM2992.88 512.658L3027.86 532.05L3031.74 525.053L2996.76 505.661L2992.88 512.658ZM2949.72 488.815L2914.73 469.423L2918.61 462.426L2953.6 481.818L2949.72 488.815ZM2976.69 503.727L2966 497.797L2967.31 489.376L2983.05 498.103L2976.69 503.727ZM2772.34 389.851L2776.21 382.854L2826.06 410.49C2826.05 410.483 2825.08 412.237 2824.12 413.989L2824.12 413.99C2823.15 415.741 2822.19 417.491 2822.18 417.481L2772.34 389.851ZM2912.11 458.685C2911.94 458.878 2911.76 459.076 2911.59 459.277C2909.91 461.172 2907.99 463.33 2905.44 464.133L2904.78 463.765L2827.77 421.08L2831.65 414.083L2912.11 458.685ZM2963.5 514.808L2964.49 515.359L2970.97 509.803L2964.85 506.409L2963.5 514.808ZM2985.38 526.579L3020.37 545.971L3024.25 538.974L2989.26 519.582L2985.38 526.579ZM2824.72 427.975L2820.85 434.956L2820.86 434.962L2874.72 464.841C2881.96 468.725 2890 469.936 2897.3 468.222L2824.72 427.975ZM2907.24 483.344L2942.22 502.736L2946.1 495.739L2911.12 476.347L2907.24 483.344ZM2814.7 431.388C2814.68 431.376 2818.56 424.43 2818.56 424.43C2818.53 424.438 2768.71 396.77 2768.72 396.776C2768.73 396.78 2767.65 398.721 2766.63 400.557C2765.71 402.2 2764.84 403.759 2764.84 403.769C2764.85 403.792 2814.72 431.4 2814.7 431.388Z" fill="white"/>
</g>
<g opacity="0.182501" style="mix-blend-mode:overlay">
<path fill-rule="evenodd" clip-rule="evenodd" d="M188.878 212.333L266.773 253.737L264.366 270.573C264.392 270.573 240.565 257.911 218.443 246.154C199.281 235.971 181.397 226.468 181.401 226.46L181.466 226.338L181.479 226.313C182.27 224.813 188.858 212.323 188.878 212.333ZM404.247 346.047L319.484 300.978L332.221 289.629L411.758 331.92L404.247 346.047ZM153.504 212.065C148.49 198.548 139.689 188.157 127.487 180.124L19.741 122.827L12.2319 136.95C12.2263 136.96 153.504 212.065 153.504 212.065ZM-99.6384 77.4566L-1.63117 129.568L5.88037 115.441L-92.1268 63.3294L-99.6384 77.4566ZM296.01 322.865L388.72 372.159L396.231 358.032L308.549 311.411C308.573 311.43 296.01 322.865 296.01 322.865ZM259.72 304.159L167.01 254.865L174.522 240.738L262.157 287.334L259.72 304.159ZM156.66 234.819L156.661 234.817L156.661 234.816L156.661 234.814L156.661 234.813L156.661 234.812L156.661 234.811L156.661 234.809C156.749 233.809 156.839 232.798 156.951 231.771L4.73592 150.837L-2.77563 164.964L153.506 248.06C155.888 243.581 156.264 239.317 156.66 234.819ZM-113.638 104.457L-15.6312 156.568L-8.11963 142.441L-106.127 90.3294L-113.638 104.457ZM284.585 333.949L271.898 345.325L347.849 385.668L355.332 371.593L284.585 333.949ZM256.379 319.401L253.949 336.23L179.781 296.794L187.293 282.667L256.379 319.401ZM137.807 272.381C141.507 268.914 144.816 264.202 147.392 259.357L102.362 235.414L94.8501 249.541L137.807 272.381ZM-101.384 146.48L-59.8855 168.545L-52.3739 154.418L-93.8725 132.352L-101.384 146.48ZM53.1145 228.545L11.616 206.48L19.1275 192.352L60.6261 214.418L53.1145 228.545ZM211.313 333.002C211.313 333.002 205.616 343.755 205.594 343.771L164.044 321.678L171.555 307.551L250.739 349.653L248.649 365.438C248.659 365.447 251.68 362.703 254.657 359.999L254.663 359.994C257.558 357.364 260.409 354.775 260.406 354.793L340.198 397.22L332.687 411.347L291.341 389.363L297.044 378.586L287.499 387.32L209.42 345.778L211.313 333.002ZM125.406 283.317L5.33608 219.474L-2.17022 233.579C-2.18143 233.6 106.004 291.096 106.004 291.096C112.459 289.854 120.274 286.649 125.406 283.317ZM125.406 283.317L125.412 283.32L125.417 283.309L125.406 283.317ZM-114.384 173.48L-72.8855 195.545L-65.3739 181.418L-106.872 159.352L-114.384 173.48ZM320.114 439.545L278.616 417.48L286.128 403.352L327.626 425.418L320.114 439.545ZM200.595 357.401L159.128 335.352L151.618 349.476C151.61 349.469 158.727 353.255 167.068 357.692C178.86 363.965 193.098 371.539 193.101 371.533L193.107 371.522C193.345 371.079 200.653 357.432 200.595 357.401ZM276.811 398.694L207.942 362.076C207.949 362.066 207.581 364.68 207.135 367.852C206.448 372.727 205.576 378.923 205.595 378.949L264.294 410.126C264.391 410.174 267.393 407.363 270.433 404.517C273.545 401.602 276.698 398.651 276.811 398.694ZM-10.5466 244.992L98.3242 302.879C101.135 309.578 102.973 316.964 103.79 323.902C103.876 323.945 83.0025 312.848 58.5111 299.828C23.8511 281.402 -18.0541 259.124 -18.0508 259.118L-10.5466 244.992ZM-81.374 209.418L-88.8855 223.545L-130.381 201.474C-130.371 201.48 -122.872 187.352 -122.872 187.352L-81.374 209.418ZM264.616 444.48L306.114 466.545L313.626 452.418L272.127 430.352L264.616 444.48ZM179.114 399.545L137.616 377.48L145.128 363.353L186.626 385.418L179.114 399.545ZM240.332 431.109C240.379 431.047 252.94 419.731 253.04 419.765L202.714 393.006C202.627 392.946 200.403 409.792 200.403 409.792C200.403 409.792 240.29 431.161 240.332 431.109ZM-24.753 272.884C-24.7613 272.887 -32.2926 287.064 -32.2618 287.006C-32.2536 286.991 8.16056 308.504 10.8411 309.931L10.9805 310.005C11.0186 310.026 18.4921 295.878 18.4921 295.878L-24.753 272.884ZM102.717 340.934C102.538 345.737 100.515 350.402 98.529 354.983L98.5278 354.985C98.4144 355.247 98.3011 355.508 98.1882 355.769C98.1249 355.916 98.0617 356.062 97.9987 356.208L97.8804 356.484L52.8501 332.541L60.3616 318.414L102.717 340.934ZM-102.886 251.545L-144.384 229.48L-136.872 215.352L-95.374 237.418L-102.886 251.545ZM248.43 471.203L317.3 507.822L324.812 493.694L255.942 457.076L248.43 471.203ZM163.3 426.822L94.4303 390.203L101.942 376.076L170.812 412.694L163.3 426.822ZM216.956 454.143L195.957 442.978L198.425 426.169L229.328 442.601L216.956 454.143ZM-185.638 239.457L-178.127 225.329L-80.1377 277.445C-80.1592 277.433 -82.0282 280.974 -83.8956 284.512C-85.7618 288.048 -87.6263 291.581 -87.6436 291.561L-185.638 239.457ZM89.4206 368.966L89.2703 369.143L89.1107 369.331L88.8759 369.609C85.6086 373.47 81.886 377.87 76.9005 379.612L75.5947 378.917L-75.6586 298.495L-68.147 284.367L89.9006 368.403C89.7416 368.588 89.5816 368.776 89.4206 368.966ZM191.792 476.942L193.799 478.009L206.557 466.671L194.196 460.099L191.792 476.942ZM234.43 498.203L303.3 534.822L310.812 520.694L241.942 484.076L234.43 498.203ZM-82.142 311.358L-89.6367 325.453L-89.6151 325.465L16.5212 381.939C30.7752 389.269 46.5809 391.236 60.8871 387.428L-82.142 311.358ZM80.4303 417.203L149.3 453.822L156.812 439.694L87.9418 403.076L80.4303 417.203ZM-101.612 318.532C-101.655 318.509 -94.142 304.483 -94.142 304.483C-94.2074 304.502 -192.143 252.321 -192.121 252.332C-192.107 252.34 -194.199 256.259 -196.178 259.965C-197.95 263.284 -199.631 266.432 -199.628 266.45C-199.618 266.496 -101.569 318.555 -101.612 318.532Z" fill="url(#paint3_linear_0_280)"/>
</g>
<g opacity="0.157599" style="mix-blend-mode:overlay">
<path fill-rule="evenodd" clip-rule="evenodd" d="M776.539 -1877.6L1070.54 -1368.38L1145.02 -1411.38L851.017 -1920.6L776.539 -1877.6ZM1533.31 -564.376C1549.33 -639.63 1539.25 -711.311 1507.01 -781.815L1183.27 -1342.62L1108.81 -1299.63C1108.76 -1299.6 1533.31 -564.376 1533.31 -564.376ZM1693.98 -457.703L1926.77 -54.6219L1867.56 14.7726C1867.68 14.8429 1796.47 -108.437 1730.35 -222.901L1730.33 -222.93C1673.06 -322.069 1619.62 -414.586 1619.66 -414.608L1620.3 -414.982L1620.31 -414.989C1627.63 -419.247 1693.92 -457.808 1693.98 -457.703ZM2290.79 749.548L2037.29 310.473L2127.4 294.544L2365.27 706.548L2290.79 749.548ZM1869.79 344.09L2150.29 829.931L2224.77 786.931L1959.48 327.434C1959.53 327.59 1869.79 344.09 1869.79 344.09ZM1755.04 148.632L1476.04 -334.611L1550.52 -377.611L1814.25 79.1822L1755.04 148.632ZM1486.18 -455.818C1489.36 -460.056 1492.56 -464.344 1495.92 -468.639L1038.15 -1261.52L965.405 -1219.52L1435.4 -405.458C1458.47 -418.774 1471.96 -436.803 1486.18 -455.818ZM633.405 -1794.1L927.405 -1284.88L1000.15 -1326.88L706.151 -1836.1L633.405 -1794.1ZM1785.7 361.592L1695.79 377.856L1922.46 770.069L1996.66 727.229L1785.7 361.592ZM1699.67 213.419L1640.54 283L1416.54 -104.979L1491.02 -147.979L1699.67 213.419ZM1290.55 -323.45C1317.24 -328.803 1345.72 -340.894 1371.27 -355.643L1235.77 -590.336L1161.29 -547.336L1290.55 -323.45ZM570.789 -1571.54L697.289 -1352.44L771.767 -1395.44L645.267 -1614.54L570.789 -1571.54ZM1036.29 -768.437L909.789 -987.542L984.267 -1030.54L1110.77 -811.437L1036.29 -768.437ZM1457.07 153.28C1457.07 153.28 1400.47 186.068 1400.33 186.076L1275.29 -30.4974L1349.77 -73.4972L1588.06 339.231L1533.4 404.938C1533.42 405.003 1555 401.021 1576.25 397.101L1576.25 397.1L1576.33 397.086L1576.74 397.009C1597.21 393.232 1617.21 389.543 1617.15 389.617L1857.27 805.519L1782.79 848.518L1658.37 633.013L1715.06 600.132L1646.8 612.987L1411.92 205.897L1457.07 153.28ZM1209.69 -319.322L845.228 -950.596L770.838 -907.684C770.727 -907.62 1099.2 -338.951 1099.2 -338.951C1132.12 -326.291 1176.83 -318.714 1209.69 -319.322ZM1209.69 -319.322L1209.71 -319.291L1209.77 -319.323L1209.69 -319.322ZM433.789 -1490.54L560.289 -1271.44L634.767 -1314.44L508.267 -1533.54L433.789 -1490.54ZM1643.29 930.831L1518.79 715.19L1593.27 672.19L1717.77 887.831L1643.29 930.831ZM1336.67 227.668L1212.27 12.1904L1137.81 55.1791C1137.79 55.1261 1159.11 92.0687 1184.11 135.381L1184.22 135.578L1184.24 135.607L1184.26 135.654L1184.31 135.732L1184.38 135.86L1184.51 136.071L1184.54 136.123L1184.58 136.209L1184.67 136.35L1184.8 136.582L1184.85 136.665L1184.93 136.803L1185.06 137.028L1185.1 137.1L1185.17 137.218L1185.28 137.411L1185.29 137.429L1185.31 137.459L1185.33 137.508C1220.47 198.388 1262.23 270.76 1262.26 270.741C1262.29 270.725 1336.85 227.976 1336.67 227.668ZM1568.01 626.138L1360.02 265.877C1360.08 265.857 1351.18 276.407 1340.28 289.322L1340.16 289.461L1339.91 289.763L1339.84 289.846L1339.66 290.055L1339.61 290.116L1339.53 290.207C1322.53 310.355 1301.13 335.723 1301.14 335.897L1478.52 642.803C1478.82 643.293 1500.47 638.984 1522.41 634.621L1522.41 634.62L1522.41 634.62L1522.44 634.615C1544.89 630.147 1567.62 625.624 1568.01 626.138ZM703.517 -869.821L1031.43 -301.852C1025.01 -263.585 1012.2 -224.932 996.058 -191.171C996.324 -190.736 933.53 -299.481 859.819 -427.132L859.681 -427.37L859.453 -427.765L859.076 -428.419L858.958 -428.623L858.763 -428.961L858.44 -429.52L858.415 -429.564L858.373 -429.636L858.304 -429.756L858.19 -429.953L858.002 -430.279L857.693 -430.814L857.691 -430.817L857.688 -430.823L857.683 -430.831L857.675 -430.845L857.662 -430.868C753.656 -610.983 629.042 -826.785 629.075 -826.804L703.517 -869.821ZM492.767 -1235.44L418.289 -1192.44L291.817 -1411.56C291.849 -1411.5 366.267 -1454.54 366.267 -1454.54L492.767 -1235.44ZM1377.79 794.19L1502.29 1009.83L1576.77 966.831L1452.27 751.19L1377.79 794.19ZM1122.29 352.831L997.789 137.19L1072.27 94.1903L1196.77 309.831L1122.29 352.831ZM1308.71 673.309C1309.1 673.157 1398.36 656.584 1398.52 657.048L1249.52 398.979C1249.3 398.475 1190.75 468.168 1190.75 468.168C1190.75 468.168 1308.37 673.429 1308.71 673.309ZM561.774 -790.127C561.73 -790.139 487.018 -746.967 487.324 -747.143C487.404 -747.19 608.3 -537.559 616.321 -523.651L616.738 -522.927C616.852 -522.729 691.216 -565.927 691.216 -565.927L561.774 -790.127ZM886.025 -72.6313L886.024 -72.6306C884.541 -71.6115 883.06 -70.5936 881.583 -69.5753C880.65 -68.9315 879.718 -68.2876 878.789 -67.643L743.289 -302.336L817.767 -345.336L945.218 -124.585C930.658 -103.311 908.137 -87.8305 886.025 -72.6313ZM277.289 -1108.44L150.789 -1327.54L225.267 -1370.54L351.767 -1151.44L277.289 -1108.44ZM1235.54 875.877L1443.54 1236.14L1518.02 1193.14L1310.02 832.877L1235.54 875.877ZM981.539 433.144L773.539 72.8772L848.017 29.8772L1056.02 390.144L981.539 433.144ZM1142.62 708.306L1078.75 597.675L1136.15 529.104L1230.15 691.917L1142.62 708.306ZM-70.3448 -1389.53L2.40126 -1431.53L296.809 -921.478C296.745 -921.59 278.576 -911.026 260.421 -900.469L260.4 -900.457L260.393 -900.453L260.384 -900.448L260.37 -900.44C242.241 -889.898 224.141 -879.374 224.118 -879.51L-70.3448 -1389.53ZM800.443 -33.7595L800.426 -33.7541L800.425 -33.7538C774.581 -25.3752 745.138 -15.8296 717.613 -21.8103L713.705 -28.579L261.039 -812.62L335.517 -855.619L808.517 -36.3595C805.87 -35.5191 803.177 -34.6459 800.443 -33.7595ZM965.87 732.521L971.797 742.787L1061.77 726.62L1025.27 663.401L965.87 732.521ZM1094.54 958.877L1302.54 1319.14L1377.02 1276.14L1169.02 915.877L1094.54 958.877ZM195.017 -775.648L120.705 -732.744L120.77 -732.632L438.237 -182.379C481.605 -109.633 547.369 -56.8168 622.934 -34.2825C621.702 -36.4156 195.017 -775.648 195.017 -775.648ZM632.539 154.877L840.539 515.144L915.017 472.144L707.017 111.877L632.539 154.877ZM81.4771 -798.054C81.3478 -798.278 155.545 -840.817 155.545 -840.817C155.194 -840.913 -138.781 -1351.12 -138.716 -1351C-138.673 -1350.93 -159.373 -1339.03 -178.951 -1327.77C-196.48 -1317.69 -213.109 -1308.12 -213.144 -1308.03C-213.23 -1307.8 81.6063 -797.83 81.4771 -798.054Z" fill="url(#paint4_linear_0_280)"/>
</g>
</g>
<defs>
<radialGradient id="paint0_radial_0_280" cx="0" cy="0" r="1" gradientUnits="userSpaceOnUse" gradientTransform="translate(2099.25 1298.66) rotate(-90) scale(2174.02 3585.58)">
<stop offset="0.000448691" stop-color="#4AA2E6"/>
<stop offset="0.696447" stop-color="#1E59A6"/>
<stop offset="1" stop-color="#073E85"/>
</radialGradient>
<linearGradient id="paint1_linear_0_280" x1="-130.537" y1="-488.82" x2="-1257.35" y2="953.434" gradientUnits="userSpaceOnUse">
<stop stop-color="white"/>
<stop offset="1" stop-color="white" stop-opacity="0.01"/>
</linearGradient>
<linearGradient id="paint2_linear_0_280" x1="1820.22" y1="1195.03" x2="2329.78" y2="2149.99" gradientUnits="userSpaceOnUse">
<stop stop-color="white"/>
<stop offset="1" stop-color="white" stop-opacity="0.01"/>
</linearGradient>
<linearGradient id="paint3_linear_0_280" x1="-241.258" y1="-184.506" x2="-569.731" y2="364.008" gradientUnits="userSpaceOnUse">
<stop stop-color="white"/>
<stop offset="1" stop-color="white" stop-opacity="0.01"/>
</linearGradient>
<linearGradient id="paint4_linear_0_280" x1="1969.64" y1="-242.567" x2="213.453" y2="120.259" gradientUnits="userSpaceOnUse">
<stop stop-color="white"/>
<stop offset="1" stop-color="white" stop-opacity="0.01"/>
</linearGradient>
<clipPath id="clip0_0_280">
<rect width="2880" height="1880" fill="white"/>
</clipPath>
</defs>
</svg>
