<svg width="360" height="804" viewBox="0 0 360 804" fill="none" xmlns="http://www.w3.org/2000/svg">
<path fill-rule="evenodd" clip-rule="evenodd" d="M180.163 133.596C199.802 133.596 215.719 117.647 215.719 97.9703C215.719 78.2931 199.802 62.3447 180.163 62.3447C160.525 62.3447 144.607 78.2931 144.607 97.9703C144.607 117.647 160.525 133.596 180.163 133.596Z" fill="white"/>
<path fill-rule="evenodd" clip-rule="evenodd" d="M180.001 17.8128C224.185 17.8128 260.001 53.6996 260.001 97.9703C260.001 142.241 224.185 178.128 180.001 178.128C135.817 178.128 100.001 142.241 100.001 97.9703C100.001 53.6996 135.817 17.8128 180.001 17.8128ZM180.001 195.941C243.95 195.941 298.808 155.537 322.224 97.9703C298.808 40.4033 243.95 0 180.001 0C116.052 0 61.1937 40.4033 37.7783 97.9703C61.1937 155.537 116.052 195.941 180.001 195.941Z" fill="white"/>
<path fill-rule="evenodd" clip-rule="evenodd" d="M180.001 803.802L186.401 785.435H173.66L180.001 803.802Z" fill="white"/>
<path fill-rule="evenodd" clip-rule="evenodd" d="M167.81 768.74H192.252L198.684 750.373H161.374L167.81 768.74Z" fill="white"/>
<path fill-rule="evenodd" clip-rule="evenodd" d="M155.525 733.677H204.537L210.973 715.311H149.09L155.525 733.677Z" fill="white"/>
<path fill-rule="evenodd" clip-rule="evenodd" d="M143.238 698.616H216.822L223.258 680.249H136.802L143.238 698.616Z" fill="white"/>
<path fill-rule="evenodd" clip-rule="evenodd" d="M162.709 610.125H70.0508V628.492H169.081L162.709 610.125Z" fill="white"/>
<path fill-rule="evenodd" clip-rule="evenodd" d="M203.146 593.428H326.67V575.061H209.518L203.146 593.428Z" fill="white"/>
<path fill-rule="evenodd" clip-rule="evenodd" d="M215.314 558.367H326.67V540H221.686L215.314 558.367Z" fill="white"/>
<path fill-rule="evenodd" clip-rule="evenodd" d="M33.3911 803.802H125.038V785.435H33.3911V803.802Z" fill="white"/>
<path fill-rule="evenodd" clip-rule="evenodd" d="M33.3911 768.742H125.038V750.375H33.3911V768.742Z" fill="white"/>
<path fill-rule="evenodd" clip-rule="evenodd" d="M70.0488 733.678H125.038V715.312H70.0488V733.678Z" fill="white"/>
<path fill-rule="evenodd" clip-rule="evenodd" d="M70.0488 698.616H125.038V680.249H70.0488V698.616Z" fill="white"/>
<path fill-rule="evenodd" clip-rule="evenodd" d="M290.009 610.125H197.351L190.979 628.492H290.009V610.125Z" fill="white"/>
<path fill-rule="evenodd" clip-rule="evenodd" d="M235.021 663.553H290.01V645.186H235.021H185.184L180.032 660.034L174.876 645.186H125.039H70.0503V663.553H125.039V646.674L130.953 663.553H229.107L235.021 646.678V663.553Z" fill="white"/>
<path fill-rule="evenodd" clip-rule="evenodd" d="M235.02 698.616H290.008V680.249H235.02V698.616Z" fill="white"/>
<path fill-rule="evenodd" clip-rule="evenodd" d="M235.02 733.678H290.008V715.312H235.02V733.678Z" fill="white"/>
<path fill-rule="evenodd" clip-rule="evenodd" d="M235.02 768.742H326.666V750.375H235.02V768.742Z" fill="white"/>
<path fill-rule="evenodd" clip-rule="evenodd" d="M235.02 803.802H326.666V785.435H235.02V803.802Z" fill="white"/>
<path fill-rule="evenodd" clip-rule="evenodd" d="M33.3916 593.428H156.916L150.54 575.061H33.3916V593.428Z" fill="white"/>
<path fill-rule="evenodd" clip-rule="evenodd" d="M138.373 540.002H33.3926V558.369H144.745L138.373 540.002Z" fill="white"/>
<path fill-rule="evenodd" clip-rule="evenodd" d="M173.234 260.461C173.234 245.731 161.319 233.793 146.618 233.793C131.918 233.793 119.999 245.731 119.999 260.461C119.999 275.19 131.918 287.128 146.618 287.128C161.319 287.128 173.234 275.19 173.234 260.461Z" fill="white"/>
<path fill-rule="evenodd" clip-rule="evenodd" d="M213.385 233.793C198.681 233.793 186.77 245.731 186.77 260.461C186.77 275.19 198.681 287.132 213.385 287.132C228.085 287.132 240 275.19 240 260.461C240 245.731 228.085 233.793 213.385 233.793Z" fill="white"/>
<path fill-rule="evenodd" clip-rule="evenodd" d="M91.7021 419.956L122.225 322.857L31.7038 362.948C13.365 371.189 0 385.748 0 407.531C0 433.241 21.0055 454.224 46.6688 454.224C71.3168 454.224 85.9104 437.255 91.7021 419.956Z" fill="white"/>
<path fill-rule="evenodd" clip-rule="evenodd" d="M328.296 362.847L237.779 322.757L268.298 419.856C274.09 437.154 288.762 454.124 313.489 454.124C313.505 454.124 313.521 454.124 313.541 454.124C339.2 454.124 360 433.141 360 407.431C360 385.652 346.639 371.093 328.296 362.847Z" fill="white"/>
<path fill-rule="evenodd" clip-rule="evenodd" d="M180.001 298.363C156.842 298.363 136.99 312.051 127.777 331.764H232.347C223.122 312.075 203.14 298.363 180.001 298.363Z" fill="white"/>
<path fill-rule="evenodd" clip-rule="evenodd" d="M122.223 358.481V389.653H237.771L237.779 358.481H122.223Z" fill="white"/>
<path fill-rule="evenodd" clip-rule="evenodd" d="M237.779 416.374H122.223V447.546H237.771L237.779 416.374Z" fill="white"/>
<path fill-rule="evenodd" clip-rule="evenodd" d="M232.347 474.266H127.777C137.002 493.955 156.862 507.667 180.001 507.667C203.159 507.667 223.13 493.975 232.347 474.266Z" fill="white"/>
</svg>
