<svg width="1609" height="652" viewBox="0 0 1609 652" fill="none" xmlns="http://www.w3.org/2000/svg">
<path d="M1608.01 651.479H1387.46V605.886H1608.01V651.479ZM0.017973 605.403C0.0180341 605.403 311.837 605.674 312.262 605.539C312.262 605.697 312.126 650.793 312.262 650.881C311.874 650.881 0.103541 651.068 0.017973 650.966C-0.0501562 650.813 0.103549 605.403 0.017973 605.403ZM1255.71 650.553L1249.43 650.553L1233.44 604.96H1272.14L1255.71 650.553ZM1116.4 650.475L895.855 650.475L895.855 604.881L1116.4 604.881L1116.4 650.475ZM806.46 604.742C776.084 633.463 734.401 649.657 689.506 650.285L352.715 650.183L352.647 604.691L806.46 604.742ZM1607.27 564.74H1386.73L1386.73 519.147H1607.27V564.74ZM854.701 518.984C851.399 534.018 848.39 552.354 837.284 564.578H353.172V518.984H854.701ZM1116.13 564L895.582 564L895.582 518.407L1116.13 518.407V564ZM312.674 519.298C312.538 519.342 312.811 563.848 312.674 563.798H0.452543L0.452543 519.265C0.945772 519.265 312.261 519.298 312.674 519.298ZM1285.16 562.983L1217.44 562.983L1201.17 518.45L1300.84 518.45L1285.16 562.983ZM221.662 478.702L87.5326 478.702V433.109L221.662 433.109V478.702ZM850.431 432.835C856.986 446.508 857.668 462.79 858.965 478.429H715.293L715.293 432.835L850.431 432.835ZM1116.56 478.089L984.555 478.089L984.555 432.496H1116.56V478.089ZM580.467 432.464C580.467 432.464 580.588 478.007 580.467 478.058C580.346 478.058 443.491 477.989 443.218 478.04C443.218 477.788 443.201 432.481 443.218 432.464L580.467 432.464ZM1518.94 477.776H1386.93L1386.93 432.183H1518.94V477.776ZM1329.46 431.906C1329.2 431.875 1313.15 477.231 1313.12 477.451C1312.89 477.636 1187.79 477.231 1187.67 477.23C1187.63 477.127 1171.19 431.872 1171.48 431.906H1329.46ZM1520.05 392.098H1388.04L1388.04 346.504H1520.05L1520.05 392.098ZM1115.93 346.481C1116.11 346.481 1115.98 391.982 1115.98 392.063C1115.98 392.097 984.167 392.046 984.017 392.063L984.017 346.481H1115.93ZM791.896 346.261C807.763 359.355 822.116 375.479 833.336 391.842C832.831 391.825 444.219 391.876 444.219 391.842C444.219 391.671 444.202 346.295 444.202 346.261L791.896 346.261ZM220.471 391.699C220.352 391.699 86.3412 391.683 86.3412 391.683C86.3755 391.683 86.3412 346.105 86.3412 346.105L220.471 346.105L220.471 391.699ZM1360.2 345.892C1359.58 345.807 1344.75 391.359 1344.13 391.399L1156.2 391.484C1156.06 391.416 1139.67 345.807 1139.66 345.892H1360.2ZM1249.46 303.147C1249.55 303.126 1264.59 260.553 1264.63 260.637H1519.23L1519.23 306.23L1387.31 306.23C1387.31 306.162 1387.24 271.606 1387.24 271.486L1375.05 306.23L1125.88 306.162L1113.69 271.486C1113.69 271.606 1113.74 306.162 1113.7 306.23L981.123 306.23L981.123 260.637H1233.78L1249.46 303.147ZM221.84 305.562H87.7113V259.968H221.84L221.84 305.562ZM831.127 259.786C822.695 275.035 807.366 293.555 792.826 305.315C792.826 305.315 444.716 305.383 444.663 305.315C444.663 305.247 444.68 259.914 444.68 259.786L831.127 259.786ZM831.147 259.786H831.127C831.134 259.775 831.141 259.763 831.147 259.752L831.147 259.786ZM1221.88 221.635H984.37V176.041L1205.61 176.041L1221.88 221.635ZM857.282 175.975C857.282 191.613 855.283 207.895 850.665 221.568L713.609 221.568L713.609 175.975L857.282 175.975ZM1520.24 175.887L1520.24 221.311L1280.08 221.412L1296.44 175.818L1520.24 175.887ZM220.967 221.189L86.8373 221.189V175.596L220.967 175.596L220.967 221.189ZM578.96 220.35L444.83 220.35V174.757H578.96V220.35ZM1190.54 133.446H894.71L894.71 87.8525L1174.35 87.8525L1190.54 133.446ZM312.985 133.445L1.25235 133.445L1.25235 88.9121L312.985 88.9121V133.445ZM838.445 88.7891C844.379 103.495 851.412 116.055 851.412 133.322L353.065 133.322L353.065 88.7891L838.445 88.7891ZM1608.11 132.573H1310.7C1310.7 132.573 1326.91 86.9965 1326.82 86.9795L1608.11 86.9795L1608.11 132.573ZM1608.45 46.7578L1339.66 46.7578L1356.23 1.16406L1608.45 1.16406L1608.45 46.7578ZM1158.91 46.3018C1158.92 46.2342 896.077 46.3524 896.051 46.3018C896.051 46.2342 895.898 0.754883 895.966 0.754883L1142.74 0.72168L1158.91 46.3018ZM697.596 0.682617C738.511 4.57102 774.096 18.9411 804.401 46.2441C804.401 46.2441 354.743 46.2779 354.298 46.2441L354.298 0.666016L697.596 0.682617ZM312.589 45.5938L0.85684 45.5938L0.85684 0L312.589 0V45.5938Z" fill="#0F62FE"/>
</svg>
